<svg id="Layer_1" data-name="Layer 1" xmlns="http://www.w3.org/2000/svg" viewBox="0 0 256 256"><defs><style>.cls-1{fill:#fff;}.cls-2{fill:#4338ca;}</style></defs><circle class="cls-1" cx="128" cy="128" r="128"/><path class="cls-2" d="M115.49,152l61.35-61.43-.52-.85c-.93-.06-1.86-.17-2.78-.17-23.72,0-47.44,0-71.15.06a6.26,6.26,0,0,0-3.86,1.64c-4.82,4.59-9.51,9.31-14.15,14.08a5.79,5.79,0,0,1-4.67,1.91c-6.3-.12-12.61,0-18.92-.07a9.41,9.41,0,0,1-2.4-.68,7.41,7.41,0,0,1,1-2.21Q75.21,88.47,91.09,72.75A6.22,6.22,0,0,1,95,71.12Q138.16,71,181.33,71h35.42a7.69,7.69,0,0,1,1.86,0,12.79,12.79,0,0,1,2,.87,7.41,7.41,0,0,1-1,1.73Q209.86,83.62,200,93.48q-28.77,28.8-57.6,57.55a5.55,5.55,0,0,1-3.4,1.58c-6.74.15-13.5.09-20.25,0A20.9,20.9,0,0,1,115.49,152Z"/><path class="cls-2" d="M139.84,104.57,79.13,165.35l.38.84c.9.08,1.79.23,2.69.23,23.8,0,47.61,0,71.41-.06a6.17,6.17,0,0,0,3.84-1.66c4.88-4.65,9.53-9.55,14.4-14.2a6.34,6.34,0,0,1,3.88-1.64c6.48-.17,13-.11,19.45-.05a9.3,9.3,0,0,1,2.37.71,7.82,7.82,0,0,1-1.1,2.2q-15.76,15.85-31.66,31.57a6.16,6.16,0,0,1-3.9,1.62q-42.76.15-85.54.08c-12.24,0-24.49,0-36.74,0a16.55,16.55,0,0,1-3.25-.69A13,13,0,0,1,37,181.5q38.34-38.44,76.78-76.79a4.4,4.4,0,0,1,2.7-1.33c7-.12,14-.08,21.05,0a9.72,9.72,0,0,1,1.95.42Z"/></svg>