<svg id="Layer_1" data-name="Layer 1" xmlns="http://www.w3.org/2000/svg" viewBox="0 0 256 256"><defs><style>.cls-1{fill:#4338ca;}</style></defs><path class="cls-1" d="M111.43,159.84l81.25-81.36L192,77.36c-1.23-.08-2.45-.23-3.68-.23-31.41,0-62.82,0-94.23.08A8.24,8.24,0,0,0,89,79.38C82.59,85.46,76.38,91.71,70.23,98a7.68,7.68,0,0,1-6.18,2.54c-8.35-.15-16.7,0-25-.1a12.59,12.59,0,0,1-3.19-.89c.45-1,.67-2.21,1.39-2.93q20.88-21,41.92-41.81a8.18,8.18,0,0,1,5.17-2.16q57.17-.18,114.34-.1h46.9a10.07,10.07,0,0,1,2.46.05,16.29,16.29,0,0,1,2.69,1.16,9.24,9.24,0,0,1-1.27,2.29q-13,13.14-26.1,26.21Q185.21,120.42,147,158.5a7.26,7.26,0,0,1-4.5,2.09c-8.93.2-17.88.12-26.82.07A28.73,28.73,0,0,1,111.43,159.84Z"/><path class="cls-1" d="M143.68,97,63.27,177.47l.51,1.11c1.19.1,2.38.3,3.56.3,31.53,0,63,.05,94.57-.08a8.24,8.24,0,0,0,5.1-2.19c6.45-6.17,12.61-12.65,19.06-18.82a8.47,8.47,0,0,1,5.14-2.17c8.59-.22,17.18-.13,25.76-.06a11.66,11.66,0,0,1,3.14.95,10.31,10.31,0,0,1-1.46,2.91q-20.88,21-41.93,41.8a8.12,8.12,0,0,1-5.16,2.15c-37.76.13-75.52.1-113.28.1-16.22,0-32.44,0-48.67-.05a21.22,21.22,0,0,1-4.29-.92,17.41,17.41,0,0,1,2.19-3.65Q58.29,147.94,109.19,97.16a5.91,5.91,0,0,1,3.58-1.77c9.29-.15,18.58-.1,27.88-.06a13.11,13.11,0,0,1,2.57.55Z"/></svg>