<svg id="Layer_1" data-name="Layer 1" xmlns="http://www.w3.org/2000/svg" viewBox="0 0 256 256"><defs><style>.cls-1{fill:#fff;}</style></defs><rect class="cls-1" x="-69.36" y="-47.02" width="424.6" height="350.04"/><path d="M115.47,152.07,176.9,90.56l-.52-.84c-.93-.06-1.86-.18-2.79-.18-23.74,0-47.49,0-71.23.06a6.28,6.28,0,0,0-3.87,1.64c-4.82,4.6-9.52,9.33-14.16,14.1a5.82,5.82,0,0,1-4.68,1.92c-6.31-.12-12.62,0-18.94-.08a9.41,9.41,0,0,1-2.4-.68,7.4,7.4,0,0,1,1-2.21Q75.14,88.42,91.05,72.68A6.17,6.17,0,0,1,95,71.05q43.23-.14,86.45-.07h35.46a7.69,7.69,0,0,1,1.86,0,12.79,12.79,0,0,1,2,.87,7.29,7.29,0,0,1-1,1.74Q210,83.56,200.06,93.44q-28.81,28.83-57.67,57.62a5.6,5.6,0,0,1-3.4,1.58c-6.76.15-13.52.09-20.28.05A21.18,21.18,0,0,1,115.47,152.07Z"/><path d="M139.85,104.55,79.07,165.4l.38.84c.9.08,1.8.23,2.69.23,23.84,0,47.67,0,71.5-.07a6.21,6.21,0,0,0,3.85-1.65c4.88-4.67,9.53-9.56,14.41-14.23a6.37,6.37,0,0,1,3.89-1.64c6.49-.17,13-.1,19.47,0a8.87,8.87,0,0,1,2.38.71,8,8,0,0,1-1.11,2.2q-15.78,15.87-31.7,31.6a6.12,6.12,0,0,1-3.9,1.63q-42.83.15-85.64.08c-12.26,0-24.53,0-36.79,0a16.58,16.58,0,0,1-3.25-.7,13.31,13.31,0,0,1,1.66-2.76q38.39-38.48,76.87-76.87a4.41,4.41,0,0,1,2.7-1.34c7-.11,14-.08,21.08,0a9.72,9.72,0,0,1,1.95.42Z"/></svg>